<svg width="178" height="22" viewBox="0 0 178 22" fill="none" xmlns="http://www.w3.org/2000/svg">
<path d="M18.4533 7.82289H15.3655C15.2468 7.16311 15.0257 6.58251 14.7024 6.08108C14.3792 5.57965 13.9833 5.1541 13.5149 4.80442C13.0464 4.45474 12.5219 4.19083 11.9413 4.01269C11.3673 3.83455 10.757 3.74548 10.1104 3.74548C8.94262 3.74548 7.89687 4.03908 6.97319 4.62628C6.0561 5.21348 5.33035 6.07448 4.79594 7.20929C4.26812 8.34411 4.00421 9.72963 4.00421 11.3659C4.00421 13.0153 4.26812 14.4074 4.79594 15.5422C5.33035 16.6771 6.0594 17.5348 6.98309 18.1154C7.90677 18.696 8.94592 18.9863 10.1005 18.9863C10.7405 18.9863 11.3475 18.9005 11.9215 18.7289C12.5021 18.5508 13.0266 18.2902 13.4951 17.9471C13.9635 17.604 14.3594 17.1851 14.6826 16.6902C15.0125 16.1888 15.2402 15.6148 15.3655 14.9682L18.4533 14.9781C18.2883 15.9744 17.9683 16.8915 17.4933 17.7294C17.0248 18.5607 16.4212 19.2799 15.6822 19.8869C14.9499 20.4872 14.1119 20.9524 13.1685 21.2823C12.225 21.6122 11.1957 21.7771 10.0807 21.7771C8.32573 21.7771 6.76206 21.3614 5.38973 20.5301C4.0174 19.6922 2.93537 18.4947 2.14364 16.9377C1.35851 15.3806 0.965948 13.5233 0.965948 11.3659C0.965948 9.20181 1.36181 7.34455 2.15354 5.79408C2.94527 4.23701 4.0273 3.04282 5.39963 2.21151C6.77196 1.37359 8.33233 0.954638 10.0807 0.954638C11.1562 0.954638 12.159 1.10968 13.0893 1.41978C14.0262 1.72327 14.8674 2.17192 15.6129 2.76572C16.3585 3.35292 16.9754 4.07207 17.4636 4.92318C17.9518 5.76769 18.2817 6.73426 18.4533 7.82289ZM21.875 21.5V6.29881H24.7351V8.71358H24.8935C25.1706 7.89546 25.6588 7.25218 26.3582 6.78374C27.0641 6.3087 27.8625 6.07118 28.7532 6.07118C28.9379 6.07118 29.1556 6.07778 29.4063 6.09098C29.6636 6.10417 29.8649 6.12067 30.01 6.14046V8.97089C29.8913 8.9379 29.6801 8.90162 29.3766 8.86203C29.0731 8.81584 28.7696 8.79275 28.4662 8.79275C27.7668 8.79275 27.1433 8.9412 26.5957 9.2381C26.0547 9.5284 25.6258 9.93416 25.3091 10.4554C24.9924 10.97 24.8341 11.5572 24.8341 12.217V21.5H21.875ZM38.578 21.8068C37.0803 21.8068 35.7905 21.4868 34.7084 20.8468C33.633 20.2002 32.8017 19.2931 32.2145 18.1253C31.6339 16.9509 31.3436 15.5752 31.3436 13.9984C31.3436 12.4413 31.6339 11.069 32.2145 9.88138C32.8017 8.69379 33.6198 7.7668 34.6689 7.10043C35.7245 6.43406 36.9583 6.10088 38.3702 6.10088C39.2279 6.10088 40.0592 6.24273 40.8641 6.52643C41.6691 6.81013 42.3915 7.25548 43.0315 7.86247C43.6715 8.46946 44.1762 9.25789 44.5457 10.2278C44.9151 11.191 45.0999 12.3621 45.0999 13.7411V14.7901H33.0161V12.5733H42.2002C42.2002 11.7947 42.0418 11.1053 41.7251 10.5049C41.4084 9.89787 40.9631 9.41954 40.3891 9.06986C39.8217 8.72018 39.1553 8.54534 38.39 8.54534C37.5587 8.54534 36.8329 8.74987 36.2127 9.15893C35.5991 9.56139 35.1241 10.0892 34.7876 10.7424C34.4577 11.389 34.2928 12.0916 34.2928 12.8504V14.5823C34.2928 15.5983 34.4709 16.4626 34.8272 17.1752C35.1901 17.8877 35.6948 18.4321 36.3414 18.8081C36.988 19.1776 37.7434 19.3623 38.6077 19.3623C39.1685 19.3623 39.6798 19.2832 40.1417 19.1248C40.6035 18.9599 41.0027 18.7158 41.3392 18.3925C41.6757 18.0692 41.933 17.67 42.1111 17.195L44.9118 17.6997C44.6875 18.5244 44.2851 19.2469 43.7045 19.8671C43.1305 20.4806 42.408 20.959 41.5371 21.3021C40.6728 21.6386 39.6864 21.8068 38.578 21.8068ZM52.8069 21.8365C51.8436 21.8365 50.9727 21.6583 50.1942 21.3021C49.4156 20.9392 48.7987 20.4147 48.3435 19.7285C47.8948 19.0423 47.6705 18.2011 47.6705 17.2049C47.6705 16.3472 47.8355 15.6412 48.1654 15.087C48.4952 14.5328 48.9406 14.094 49.5014 13.7707C50.0622 13.4475 50.689 13.2033 51.3818 13.0384C52.0745 12.8735 52.7805 12.7481 53.4996 12.6623C54.4101 12.5568 55.1491 12.471 55.7165 12.405C56.2839 12.3324 56.6962 12.217 56.9535 12.0586C57.2109 11.9003 57.3395 11.643 57.3395 11.2867V11.2174C57.3395 10.3531 57.0954 9.68345 56.6072 9.20841C56.1255 8.73337 55.4064 8.49585 54.4497 8.49585C53.4534 8.49585 52.6683 8.71688 52.0943 9.15893C51.5269 9.59438 51.1343 10.0793 50.9166 10.6137L48.1357 9.98035C48.4656 9.05666 48.9472 8.31112 49.5806 7.74371C50.2205 7.16971 50.9562 6.75405 51.7875 6.49674C52.6188 6.23283 53.493 6.10088 54.4101 6.10088C55.0171 6.10088 55.6604 6.17345 56.34 6.3186C57.0261 6.45715 57.6661 6.71446 58.2599 7.09054C58.8603 7.46661 59.3518 8.00432 59.7345 8.70368C60.1172 9.39645 60.3085 10.297 60.3085 11.4055V21.5H57.4187V19.4217H57.2999C57.1086 19.8044 56.8216 20.1805 56.4389 20.5499C56.0562 20.9194 55.5647 21.2262 54.9643 21.4703C54.3639 21.7144 53.6448 21.8365 52.8069 21.8365ZM53.4501 19.4613C54.2683 19.4613 54.9676 19.2997 55.5482 18.9764C56.1354 18.6531 56.5808 18.2308 56.8843 17.7096C57.1944 17.1818 57.3494 16.6177 57.3494 16.0173V14.0577C57.2438 14.1633 57.0393 14.2623 56.7358 14.3546C56.4389 14.4404 56.0991 14.5163 55.7165 14.5823C55.3338 14.6416 54.961 14.6977 54.5981 14.7505C54.2353 14.7967 53.9318 14.8363 53.6877 14.8693C53.1137 14.9418 52.5891 15.0639 52.1141 15.2354C51.6457 15.407 51.2696 15.6544 50.9859 15.9777C50.7088 16.2944 50.5702 16.7166 50.5702 17.2445C50.5702 17.9768 50.8407 18.531 51.3818 18.9071C51.9228 19.2766 52.6122 19.4613 53.4501 19.4613ZM71.3457 6.29881V8.67399H63.0424V6.29881H71.3457ZM65.2692 2.65686H68.2283V17.0366C68.2283 17.6106 68.314 18.0428 68.4856 18.3331C68.6571 18.6168 68.8781 18.8114 69.1486 18.917C69.4257 19.016 69.7259 19.0654 70.0492 19.0654C70.2867 19.0654 70.4946 19.0489 70.6727 19.016C70.8509 18.983 70.9894 18.9566 71.0884 18.9368L71.6228 21.3812C71.4512 21.4472 71.2071 21.5132 70.8904 21.5792C70.5737 21.6517 70.1779 21.6913 69.7028 21.6979C68.9243 21.7111 68.1986 21.5726 67.5256 21.2823C66.8526 20.992 66.3083 20.5433 65.8927 19.9363C65.477 19.3293 65.2692 18.5673 65.2692 17.6502V2.65686ZM81.0073 21.8068C79.5096 21.8068 78.2197 21.4868 77.1377 20.8468C76.0622 20.2002 75.2309 19.2931 74.6437 18.1253C74.0631 16.9509 73.7728 15.5752 73.7728 13.9984C73.7728 12.4413 74.0631 11.069 74.6437 9.88138C75.2309 8.69379 76.049 7.7668 77.0981 7.10043C78.1537 6.43406 79.3875 6.10088 80.7994 6.10088C81.6571 6.10088 82.4884 6.24273 83.2934 6.52643C84.0983 6.81013 84.8207 7.25548 85.4607 7.86247C86.1007 8.46946 86.6054 9.25789 86.9749 10.2278C87.3444 11.191 87.5291 12.3621 87.5291 13.7411V14.7901H75.4454V12.5733H84.6294C84.6294 11.7947 84.4711 11.1053 84.1544 10.5049C83.8377 9.89787 83.3923 9.41954 82.8183 9.06986C82.2509 8.72018 81.5846 8.54534 80.8192 8.54534C79.9879 8.54534 79.2621 8.74987 78.642 9.15893C78.0284 9.56139 77.5533 10.0892 77.2168 10.7424C76.887 11.389 76.722 12.0916 76.722 12.8504V14.5823C76.722 15.5983 76.9002 16.4626 77.2564 17.1752C77.6193 17.8877 78.124 18.4321 78.7706 18.8081C79.4172 19.1776 80.1726 19.3623 81.0369 19.3623C81.5977 19.3623 82.1091 19.2832 82.5709 19.1248C83.0328 18.9599 83.4319 18.7158 83.7684 18.3925C84.1049 18.0692 84.3622 17.67 84.5403 17.195L87.3411 17.6997C87.1168 18.5244 86.7143 19.2469 86.1337 19.8671C85.5597 20.4806 84.8372 20.959 83.9663 21.3021C83.102 21.6386 82.1157 21.8068 81.0073 21.8068Z" fill="black"/>
<path d="M108.468 8.32761H104.133C104.054 7.7668 103.892 7.26867 103.648 6.83322C103.404 6.39118 103.091 6.0151 102.708 5.70501C102.325 5.39492 101.883 5.1574 101.382 4.99245C100.887 4.82751 100.349 4.74504 99.7687 4.74504C98.7197 4.74504 97.8059 5.00565 97.0274 5.52687C96.2489 6.0415 95.6452 6.79364 95.2163 7.7833C94.7875 8.76636 94.573 9.96055 94.573 11.3659C94.573 12.8108 94.7875 14.0248 95.2163 15.0078C95.6518 15.9909 96.2587 16.7331 97.0373 17.2346C97.8158 17.736 98.7164 17.9867 99.7391 17.9867C100.313 17.9867 100.844 17.9108 101.332 17.7591C101.827 17.6073 102.266 17.3863 102.649 17.096C103.031 16.7991 103.348 16.4395 103.599 16.0173C103.856 15.595 104.034 15.1134 104.133 14.5724L108.468 14.5922C108.356 15.5224 108.075 16.4197 107.627 17.284C107.185 18.1418 106.588 18.9104 105.835 19.59C105.09 20.2629 104.199 20.7973 103.163 21.1932C102.134 21.5825 100.97 21.7771 99.6698 21.7771C97.862 21.7771 96.2456 21.368 94.8204 20.5499C93.4019 19.7318 92.2803 18.5475 91.4556 16.997C90.6375 15.4466 90.2284 13.5695 90.2284 11.3659C90.2284 9.15563 90.6441 7.27527 91.4754 5.7248C92.3067 4.17433 93.4349 2.99334 94.86 2.18182C96.2851 1.3637 97.8884 0.954638 99.6698 0.954638C100.844 0.954638 101.933 1.11958 102.936 1.44947C103.945 1.77936 104.839 2.26099 105.618 2.89437C106.396 3.52116 107.03 4.2898 107.518 5.20028C108.013 6.11077 108.329 7.15321 108.468 8.32761ZM118.33 21.7969C116.793 21.7969 115.463 21.4703 114.342 20.8171C113.226 20.1574 112.365 19.2403 111.758 18.0659C111.151 16.8849 110.848 15.5158 110.848 13.9588C110.848 12.3885 111.151 11.0162 111.758 9.84179C112.365 8.6608 113.226 7.74371 114.342 7.09054C115.463 6.43076 116.793 6.10088 118.33 6.10088C119.867 6.10088 121.193 6.43076 122.308 7.09054C123.43 7.74371 124.294 8.6608 124.901 9.84179C125.508 11.0162 125.812 12.3885 125.812 13.9588C125.812 15.5158 125.508 16.8849 124.901 18.0659C124.294 19.2403 123.43 20.1574 122.308 20.8171C121.193 21.4703 119.867 21.7969 118.33 21.7969ZM118.35 18.531C119.049 18.531 119.633 18.3331 120.101 17.9372C120.57 17.5348 120.923 16.9871 121.16 16.2944C121.404 15.6016 121.526 14.8132 121.526 13.9291C121.526 13.045 121.404 12.2566 121.16 11.5638C120.923 10.871 120.57 10.3234 120.101 9.92097C119.633 9.5185 119.049 9.31727 118.35 9.31727C117.644 9.31727 117.05 9.5185 116.568 9.92097C116.093 10.3234 115.734 10.871 115.49 11.5638C115.252 12.2566 115.133 13.045 115.133 13.9291C115.133 14.8132 115.252 15.6016 115.49 16.2944C115.734 16.9871 116.093 17.5348 116.568 17.9372C117.05 18.3331 117.644 18.531 118.35 18.531ZM132.769 1.23174V21.5H128.553V1.23174H132.769ZM143.014 21.7969C141.477 21.7969 140.148 21.4703 139.026 20.8171C137.911 20.1574 137.05 19.2403 136.443 18.0659C135.836 16.8849 135.533 15.5158 135.533 13.9588C135.533 12.3885 135.836 11.0162 136.443 9.84179C137.05 8.6608 137.911 7.74371 139.026 7.09054C140.148 6.43076 141.477 6.10088 143.014 6.10088C144.552 6.10088 145.878 6.43076 146.993 7.09054C148.114 7.74371 148.979 8.6608 149.586 9.84179C150.193 11.0162 150.496 12.3885 150.496 13.9588C150.496 15.5158 150.193 16.8849 149.586 18.0659C148.979 19.2403 148.114 20.1574 146.993 20.8171C145.878 21.4703 144.552 21.7969 143.014 21.7969ZM143.034 18.531C143.734 18.531 144.318 18.3331 144.786 17.9372C145.254 17.5348 145.607 16.9871 145.845 16.2944C146.089 15.6016 146.211 14.8132 146.211 13.9291C146.211 13.045 146.089 12.2566 145.845 11.5638C145.607 10.871 145.254 10.3234 144.786 9.92097C144.318 9.5185 143.734 9.31727 143.034 9.31727C142.328 9.31727 141.734 9.5185 141.253 9.92097C140.778 10.3234 140.418 10.871 140.174 11.5638C139.937 12.2566 139.818 13.045 139.818 13.9291C139.818 14.8132 139.937 15.6016 140.174 16.2944C140.418 16.9871 140.778 17.5348 141.253 17.9372C141.734 18.3331 142.328 18.531 143.034 18.531ZM153.238 21.5V6.29881H157.325V8.9511H157.483C157.76 8.00762 158.226 7.29507 158.879 6.81343C159.532 6.3252 160.284 6.08108 161.135 6.08108C161.346 6.08108 161.574 6.09428 161.818 6.12067C162.062 6.14706 162.277 6.18335 162.461 6.22953V9.97045C162.263 9.91107 161.99 9.85829 161.64 9.8121C161.29 9.76592 160.97 9.74283 160.68 9.74283C160.06 9.74283 159.506 9.87808 159.017 10.1486C158.536 10.4125 158.153 10.782 157.869 11.257C157.592 11.732 157.454 12.2797 157.454 12.8998V21.5H153.238ZM177.289 10.6335L173.429 10.871C173.363 10.5412 173.221 10.2443 173.004 9.98035C172.786 9.70984 172.499 9.49541 172.143 9.33707C171.793 9.17212 171.374 9.08965 170.886 9.08965C170.233 9.08965 169.682 9.2282 169.233 9.50531C168.784 9.77582 168.56 10.1387 168.56 10.5939C168.56 10.9568 168.705 11.2636 168.996 11.5143C169.286 11.765 169.784 11.9663 170.49 12.118L173.241 12.6722C174.719 12.9757 175.821 13.464 176.547 14.1369C177.272 14.8099 177.635 15.694 177.635 16.7892C177.635 17.7855 177.342 18.6597 176.754 19.4118C176.174 20.164 175.376 20.7512 174.359 21.1734C173.35 21.5891 172.186 21.7969 170.866 21.7969C168.854 21.7969 167.25 21.3779 166.056 20.54C164.869 19.6955 164.173 18.5475 163.968 17.096L168.115 16.8783C168.24 17.4919 168.544 17.9603 169.025 18.2836C169.507 18.6003 170.124 18.7586 170.876 18.7586C171.615 18.7586 172.209 18.6168 172.657 18.3331C173.113 18.0428 173.343 17.67 173.35 17.2148C173.343 16.8321 173.182 16.5187 172.865 16.2746C172.548 16.0239 172.06 15.8325 171.4 15.7006L168.768 15.1761C167.283 14.8792 166.178 14.3645 165.453 13.6322C164.733 12.8998 164.374 11.9663 164.374 10.8315C164.374 9.85499 164.638 9.01378 165.166 8.30782C165.7 7.60186 166.449 7.05755 167.412 6.67488C168.382 6.29221 169.517 6.10088 170.816 6.10088C172.736 6.10088 174.247 6.50664 175.349 7.31816C176.458 8.12968 177.104 9.2348 177.289 10.6335Z" fill="#0582E8"/>
</svg>
